# xmcd
#
# Track frame offsets: 
#        150
#        16979
#        31921
#        50998
#        70876
#        86684
#        107252
#        122520
#        146681
#        163541
#        183473
#
# Disc length: 2670 seconds
#
# Revision: 2
# Processed by: cddbd v1.5.2PL0 Copyright (c) Steve Scherf et al.
# Submitted via: ExactAudioCopy v0.90b4
#
DISCID=8f0a6c0b
DTITLE=Jay Clark - Progress
DYEAR=2007
DGENRE=Country
TTITLE0=When I get to drinkin
TTITLE1=These Hills
TTITLE2=Demons
TTITLE3=Hard life
TTITLE4=Progress
TTITLE5=Constant reminder
TTITLE6=Better man
TTITLE7=Afterlife
TTITLE8=Scars
TTITLE9=West Virginia smiles
TTITLE10=Outta here
EXTD=
EXTT0=Album: Progress
EXTT1=Album: Progress
EXTT2=Album: Progress
EXTT3=Album: Progress
EXTT4=Album: Progress
EXTT5=Album: Progress
EXTT6=Album: Progress
EXTT7=Album: Progress
EXTT8=Album: Progress
EXTT9=Album: Progress
EXTT10=Album: Progress
PLAYORDER=
